<?xml version="1.0" encoding="UTF-8"?>
<svg id="Layer_2" data-name="Layer 2" xmlns="http://www.w3.org/2000/svg" viewBox="0 0 313.8 97.85">
  <defs>
    <style>
      .cls-1 {
        font-family : "Lucida Handwriting","Segoe Script";
        font-size: 49.51px;
      }

      .cls-1{
        fill: #000;
      }
      .cls-2 {
        fill: #fff;
      }

      .cls-2, .cls-3 {
        stroke-width: 0px;
      }

      .cls-3 {
        fill: #ffe090;
      }
    </style>
  </defs>
  <g id="Layer_1-2" data-name="Layer 1">
    <g>
      <g>
        <path class="cls-2" d="M136.32,51.85c-.63-1.04-1.57-1.95-2.81-2.74-1.25-.79-3.31-1.8-6.2-3.05-3.61-1.54-5.91-2.71-6.92-3.52-.86-.76-1.25-1.64-1.25-2.55,0-1.21.61-2.25,1.87-3.16,1.25-.92,2.89-1.38,4.86-1.38s3.54.47,4.86,1.38c1.23.86,2.5,2.05,3.08,3.92.02.16.18.29.38.29.21,0,.38-.14.38-.32h0s.45-4.93.45-4.93c-1.03-.62-2.47-1.27-3.45-1.55-1.34-.34-2.92-.52-4.77-.52-3.34,0-6,.72-7.99,2.17-1.98,1.45-2.98,3.22-2.98,5.3,0,1.16.28,2.17.84,3.04.76,1.12,1.89,2.19,3.41,3.2.92.6,2.89,1.56,5.9,2.87h0c3.06,1.32,5.11,2.53,6.11,3.5.98.95,1.47,2.02,1.47,3.17,0,.83-.33,1.71-.97,2.6-.64.89-1.55,1.58-2.69,2.05-1.15.48-2.43.72-3.8.72-2.24,0-4.27-.71-6.05-2.11-1.76-1.38-2.88-2.62-3.14-4.36-.01-.12-.02-.24-.02-.35,0-.28-.27-.51-.61-.51s-.61.23-.61.51c-.04.21-.53,5.89-.53,5.89,0,.27.15.52.43.76.29.24,1.09.55,2.41.95,2.24.65,4.57.97,7.01.97,2.8,0,5.04-.36,6.74-1.07,1.69-.71,3.04-1.78,4.05-3.19,1-1.41,1.5-2.92,1.5-4.53,0-1.28-.32-2.43-.95-3.47Z"/>
        <path class="cls-2" d="M214.08,46.71c3.56-1.16,5.97-3.38,5.97-5.93,0-3.75-5.22-6.79-11.65-6.79h-.07c-2.1-.04-4.81,0-5.87.03-2.66.09-4.4.22-6.55.38l-1.83.08h-.02c-.34-.03-.64.18-.68.46-.04.28.22.54.56.57h0l3.17.59h0c.92.19.89.76.84,1.5h0v23.13h0c.05.75-.61,1.43-1.51,1.51h0s-2.5.6-2.5.6h0c-.34.03-.59.28-.55.57.04.28.34.49.68.46h15.95c7.31,0,13.21-3.94,13.21-8.79,0-3.91-3.83-7.22-9.14-8.37ZM207.26,35.39c1.99,0,3.65.33,4.96.98.22.1,5.41,2.45,2.04,7.48-.08.13-1.94,3.12-8.27,3.12-1.06,0-2.2-.09-3.39-.26v-10.78c.62-.14,2.51-.53,4.65-.53ZM216.89,59.4s-2.09,2.77-7.84,2.9c0,0-.15,0-.41,0-1.34,0-5.73-.23-6.04-3.19v-10.35c.66-.09,2.53-.32,4.74-.32,3.2,0,5.76.46,7.6,1.35.02.01,1.64.92,2.7,2.55,1.41,2.18,1.16,4.55-.76,7.05Z"/>
        <path class="cls-2" d="M271.01,62.75h0s-2.51-.59-2.51-.59h0c-.89-.09-1.55-.76-1.51-1.5h0v-23.45h0c-.05-.75.62-1.43,1.51-1.51h0s2.51-.59,2.51-.59h0c.34-.03.59-.29.55-.57-.04-.28-.34-.5-.68-.47h-12.45c-.34-.03-.64.19-.68.47-.04.28.21.53.55.56h0s2.5.6,2.5.6h0c.89.09,1.55.76,1.51,1.5h0s0,10.86,0,10.86h-19.22v-11.01c.05-.68.68-1.26,1.51-1.34h0s2.5-.59,2.5-.59h0c.34-.03.59-.29.55-.57-.04-.28-.34-.5-.68-.47h-3.89s0,0,0,0h-4.67s-3.85,0-3.85,0h-.02c-.34-.03-.64.19-.68.47-.04.28.21.53.55.56h0s2.51.6,2.51.6h0c.78.08,1.39.61,1.49,1.23v23.99c-.11.63-.71,1.16-1.49,1.23h0s-2.51.59-2.51.59h0c-.34.04-.58.29-.55.57.04.28.34.49.68.47h8.54s3.86,0,3.86,0h.02c.34.03.64-.18.68-.46.04-.28-.21-.53-.55-.56h0s-2.51-.6-2.51-.6h0c-.83-.08-1.46-.67-1.51-1.34v-11.02h19.22v10.85s0,0,0,0c.05.74-.62,1.42-1.51,1.5h0s-2.5.59-2.5.59h0c-.34.04-.59.29-.55.57.04.28.34.5.68.47h8.56s3.87,0,3.87,0h.02c.34.03.64-.18.68-.47.04-.28-.21-.54-.55-.57Z"/>
        <path class="cls-2" d="M313.24,62.76h0s-1.8-.46-1.8-.46h-.01c-.91-.16-1.64-.7-1.94-1.41h0s-12.29-26.82-12.29-26.82h-1.23l-12.29,26.8h0c-.3.73-1.04,1.27-1.94,1.42h-.01s-1.8.46-1.8.46h0c-.34.03-.58.29-.55.57.04.28.34.49.68.46h9.18,0c.34.03.67-.17.71-.46.04-.28-.21-.54-.55-.57h0s-2.24-.55-2.24-.55h0c-.41-.06-.77-.28-.96-.56-.19-.29-.18-.65.02-1.03h.01s0-.02,0-.02l3.98-8.7h11.1l3.81,8.32h0c.56,1.06-.27,1.81-1.16,1.95l-2.51.59h0c-.34.03-.59.29-.55.57.04.28.37.49.71.46h0,11.54c.34.03.64-.17.68-.46.04-.28-.21-.54-.55-.57ZM290.99,50.14l4.74-10.36,4.75,10.36h-9.49Z"/>
        <path class="cls-2" d="M183.8,48.56c0-1.79-.33-3.53-.98-5.21-.5-1.28-1.24-2.48-2.22-3.59-1.41-1.6-2.82-2.79-4.23-3.56-1.41-.77-2.98-1.37-4.71-1.8-1.73-.43-3.5-.65-5.31-.65-.24,0-.48,0-.72.01-.24,0-.48-.01-.72-.01-1.81,0-3.58.22-5.3.65-1.73.43-3.3,1.03-4.71,1.8-1.41.77-2.82,1.96-4.23,3.56-.98,1.11-1.72,2.31-2.22,3.59-.65,1.68-.98,3.42-.98,5.21,0,.12,0,.24,0,.37,0,.12,0,.24,0,.37,0,1.79.33,3.53.98,5.21.5,1.28,1.24,2.48,2.22,3.59,1.41,1.6,2.82,2.79,4.23,3.57s2.98,1.37,4.71,1.81c1.73.43,3.5.65,5.3.65.25,0,.48,0,.72,0h0c.24,0,.48,0,.72,0,1.81,0,3.58-.22,5.31-.65,1.73-.43,3.3-1.03,4.71-1.81,1.41-.77,2.82-1.96,4.23-3.57.98-1.11,1.72-2.31,2.22-3.59.65-1.68.98-3.42.98-5.21,0-.12,0-.24,0-.37,0-.12,0-.24,0-.37ZM179.1,48.98c0,2.02-.34,4.02-1.03,6-.53,1.5-1.4,2.84-2.61,4.02-1.2,1.18-2.66,2.1-4.36,2.74-1.7.65-3.52.97-5.45.97h-.05c-1.93,0-3.74-.32-5.45-.97-1.7-.65-3.16-1.56-4.36-2.74-1.21-1.18-2.07-2.52-2.61-4.02-.69-1.98-1.03-3.98-1.03-6,0-.02,0-.04,0-.06h0s0-.04,0-.06c0-2.02.34-4.02,1.03-6,.53-1.5,1.4-2.84,2.61-4.02,1.2-1.18,2.66-2.1,4.36-2.74,1.7-.65,3.52-.97,5.45-.97h.05c1.93,0,3.74.32,5.45.97,1.7.64,3.16,1.56,4.36,2.74,1.2,1.18,2.07,2.52,2.61,4.02.69,1.98,1.03,3.98,1.03,6,0,.02,0,.04,0,.06h0s0,.04,0,.06Z"/>
      </g>
      <g>
        <circle class="cls-3" cx="48.92" cy="48.92" r="48.92"/>
        <text class="cls-1" transform="translate(14.35 58.27)"><tspan x="0" y="0">my</tspan></text>
      </g>
    </g>
  </g>
</svg>